<svg width="94" height="14" viewBox="0 0 94 14" fill="none" xmlns="http://www.w3.org/2000/svg">
<path d="M0.494 13V0.399999H5.948C7.076 0.399999 8.048 0.585999 8.864 0.957999C9.68 1.318 10.31 1.84 10.754 2.524C11.198 3.208 11.42 4.024 11.42 4.972C11.42 5.908 11.198 6.718 10.754 7.402C10.31 8.086 9.68 8.614 8.864 8.986C8.048 9.346 7.076 9.526 5.948 9.526H2.114L3.41 8.212V13H0.494ZM3.41 8.536L2.114 7.15H5.786C6.686 7.15 7.358 6.958 7.802 6.574C8.246 6.19 8.468 5.656 8.468 4.972C8.468 4.276 8.246 3.736 7.802 3.352C7.358 2.968 6.686 2.776 5.786 2.776H2.114L3.41 1.39V8.536ZM13.5018 13V0.399999H16.4178V13H13.5018ZM25.5281 13.216C24.5321 13.216 23.6081 13.054 22.7561 12.73C21.9161 12.406 21.1841 11.95 20.5601 11.362C19.9481 10.774 19.4681 10.084 19.1201 9.292C18.7841 8.5 18.6161 7.636 18.6161 6.7C18.6161 5.764 18.7841 4.9 19.1201 4.108C19.4681 3.316 19.9541 2.626 20.5781 2.038C21.2021 1.45 21.9341 0.993999 22.7741 0.669999C23.6141 0.345999 24.5261 0.184 25.5101 0.184C26.5061 0.184 27.4181 0.345999 28.2461 0.669999C29.0861 0.993999 29.8121 1.45 30.4241 2.038C31.0481 2.626 31.5341 3.316 31.8821 4.108C32.2301 4.888 32.4041 5.752 32.4041 6.7C32.4041 7.636 32.2301 8.506 31.8821 9.31C31.5341 10.102 31.0481 10.792 30.4241 11.38C29.8121 11.956 29.0861 12.406 28.2461 12.73C27.4181 13.054 26.5121 13.216 25.5281 13.216ZM25.5101 10.732C26.0741 10.732 26.5901 10.636 27.0581 10.444C27.5381 10.252 27.9581 9.976 28.3181 9.616C28.6781 9.256 28.9541 8.83 29.1461 8.338C29.3501 7.846 29.4521 7.3 29.4521 6.7C29.4521 6.1 29.3501 5.554 29.1461 5.062C28.9541 4.57 28.6781 4.144 28.3181 3.784C27.9701 3.424 27.5561 3.148 27.0761 2.956C26.5961 2.764 26.0741 2.668 25.5101 2.668C24.9461 2.668 24.4241 2.764 23.9441 2.956C23.4761 3.148 23.0621 3.424 22.7021 3.784C22.3421 4.144 22.0601 4.57 21.8561 5.062C21.6641 5.554 21.5681 6.1 21.5681 6.7C21.5681 7.288 21.6641 7.834 21.8561 8.338C22.0601 8.83 22.3361 9.256 22.6841 9.616C23.0441 9.976 23.4641 10.252 23.9441 10.444C24.4241 10.636 24.9461 10.732 25.5101 10.732ZM34.0903 9.058V6.808H39.1843V9.058H34.0903ZM41.5917 13V0.399999H44.0037L51.4377 9.472H50.2677V0.399999H53.1477V13H50.7537L43.3017 3.928H44.4717V13H41.5917ZM58.8108 5.476H64.8768V7.744H58.8108V5.476ZM59.0268 10.66H65.8848V13H56.1288V0.399999H65.6508V2.74H59.0268V10.66ZM73.8029 13.216C72.0149 13.216 70.6169 12.718 69.6089 11.722C68.6009 10.726 68.0969 9.304 68.0969 7.456V0.399999H71.0129V7.348C71.0129 8.548 71.2589 9.412 71.7509 9.94C72.2429 10.468 72.9329 10.732 73.8209 10.732C74.7089 10.732 75.3989 10.468 75.8909 9.94C76.3829 9.412 76.6289 8.548 76.6289 7.348V0.399999H79.5089V7.456C79.5089 9.304 79.0049 10.726 77.9969 11.722C76.9889 12.718 75.5909 13.216 73.8029 13.216ZM82.3905 13V0.399999H87.8445C88.9725 0.399999 89.9445 0.585999 90.7605 0.957999C91.5765 1.318 92.2065 1.84 92.6505 2.524C93.0945 3.208 93.3165 4.024 93.3165 4.972C93.3165 5.908 93.0945 6.718 92.6505 7.402C92.2065 8.074 91.5765 8.59 90.7605 8.95C89.9445 9.31 88.9725 9.49 87.8445 9.49H84.0105L85.3065 8.212V13H82.3905ZM90.4005 13L87.2505 8.428H90.3645L93.5505 13H90.4005ZM85.3065 8.536L84.0105 7.168H87.6825C88.5825 7.168 89.2545 6.976 89.6985 6.592C90.1425 6.196 90.3645 5.656 90.3645 4.972C90.3645 4.276 90.1425 3.736 89.6985 3.352C89.2545 2.968 88.5825 2.776 87.6825 2.776H84.0105L85.3065 1.39V8.536Z" fill="white"/>
</svg>
