<svg width="27" height="37" viewBox="0 0 27 37" fill="none" xmlns="http://www.w3.org/2000/svg">
<path d="M13.676 29.5286H11.889C10.6304 29.5286 9.6076 30.5514 9.6076 31.8099V34.2776C9.6076 35.5362 10.6304 36.559 11.889 36.559H13.676C14.9346 36.559 15.9574 35.5362 15.9574 34.2776V31.8099C15.9574 30.5476 14.9346 29.5286 13.676 29.5286Z" fill="#2C34C4"/>
<path d="M1.0753 10.8669L4.37187 11.2776C5.4175 11.4068 6.4099 10.8061 6.78632 9.82129C7.26161 8.57795 7.92321 7.59696 8.77111 6.88213C9.97267 5.87072 11.4669 5.36122 13.254 5.36122C15.1057 5.36122 16.581 5.84791 17.6761 6.81749C18.7711 7.79087 19.3148 8.95437 19.3148 10.3194C19.3148 11.3004 19.0069 12.1977 18.3909 13.0114C17.9916 13.5285 16.7635 14.616 14.7141 16.2776C12.6608 17.9392 11.2959 19.4372 10.6115 20.768C9.91184 22.1293 9.66849 23.6387 9.60765 25.1521C9.55446 26.4487 10.5886 27.5285 11.889 27.5285H13.7521C14.9385 27.5285 15.9194 26.6198 16.0259 25.4411C16.102 24.5932 16.2426 23.9506 16.4556 23.5133C16.813 22.7643 17.7369 21.7757 19.2198 20.5438C22.0905 18.1673 23.9612 16.289 24.8396 14.9049C25.7141 13.5247 26.1552 12.0608 26.1552 10.5133C26.1552 7.71863 24.9651 5.26616 22.581 3.1597C20.2008 1.05323 16.9917 0 12.9613 0C9.12857 0 6.03731 1.03802 3.6799 3.11787C1.67229 4.88973 0.451759 6.98859 0.0221016 9.41065C-0.111016 10.1179 0.371874 10.7795 1.0753 10.8669Z" fill="#2C34C4"/>
</svg>
