<svg width="79" height="79" viewBox="0 0 79 79" fill="none" xmlns="http://www.w3.org/2000/svg">
<g clip-path="url(#clip0_23_116)">
<path d="M77.0936 3.34387L76.6999 2.3019L75.658 1.90839C72.3047 0.642047 68.7802 0 65.1822 0C57.2751 0 49.8411 3.07923 44.2498 8.67059L36.3225 16.5979L18.6051 17.4572L3.77618 32.2859L16.5617 36.3586L11.8338 41.0864L14.5956 43.8482L8.47696 53.2267L25.7749 70.525L35.1536 64.4063L37.9154 67.1682L42.6433 62.4403L46.7157 75.2258L61.5449 60.3969L62.4041 42.6797L70.3314 34.7524C78.5434 26.5402 81.1977 14.2116 77.0936 3.34387ZM12.9904 30.0457L20.7459 22.2903L31.1338 21.7865L20.4868 32.4335L12.9904 30.0457ZM26.4322 64.2084L14.7935 52.5697L18.1588 47.4115L31.5903 60.8432L26.4322 64.2084ZM56.7117 58.2563L48.9563 66.0116L46.5684 58.5152L57.2155 47.8681L56.7117 58.2563ZM37.9154 60.1942L18.8076 41.0864L47.7367 12.1573C52.3967 7.49745 58.5921 4.93123 65.1822 4.93123C67.8051 4.93123 70.3805 5.34003 72.8537 6.14777C75.7222 14.9385 73.423 24.6867 66.8445 31.2653L37.9154 60.1942Z" fill="#2C34C4"/>
<path d="M59.9886 11.6163C58.0128 11.6163 56.1554 12.3858 54.7584 13.7828C51.8743 16.6667 51.8743 21.3595 54.7584 24.2436C56.1554 25.6406 58.013 26.41 59.9886 26.41C61.9642 26.41 63.8218 25.6406 65.2189 24.2436C68.103 21.3596 68.103 16.6669 65.2189 13.7828C63.822 12.3858 61.9644 11.6163 59.9886 11.6163ZM61.7321 20.7567C61.2665 21.2224 60.6473 21.479 59.9888 21.479C59.3303 21.479 58.7111 21.2224 58.2454 20.7569C57.284 19.7954 57.284 18.2313 58.2454 17.2698C58.7111 16.8042 59.3303 16.5477 59.9888 16.5477C60.6473 16.5477 61.2665 16.8042 61.7321 17.2698C62.6934 18.2311 62.6934 19.7954 61.7321 20.7567Z" fill="#2C34C4"/>
<path d="M0.00213623 61.7411L5.5907 56.1523L9.07758 59.6392L3.48901 65.2278L0.00213623 61.7411ZM17.26 79.0001L13.7731 75.5132L19.3617 69.9246L22.8485 73.4115L17.26 79.0001ZM4.11446 71.1541L12.3532 62.9154L15.8401 66.4022L7.60133 74.641L4.11446 71.1541Z" fill="#2C34C4"/>
</g>
<defs>
<clipPath id="clip0_23_116">
<rect width="79" height="79" fill="white"/>
</clipPath>
</defs>
</svg>
