<svg width="35" height="27" viewBox="0 0 35 27" fill="none" xmlns="http://www.w3.org/2000/svg">
<path d="M34.2023 2.32179C34.4427 1.30683 34.2023 0.559814 33.0458 0.559814H29.2188C28.2442 0.559814 27.7959 1.20127 27.5555 1.9158C27.5555 1.9158 25.6063 7.85131 22.8514 11.7C21.9612 12.8124 21.5519 13.1697 21.0646 13.1697C20.8242 13.1697 20.4538 12.8124 20.4538 11.7975V2.32179C20.4538 1.10383 20.1809 0.559814 19.3753 0.559814H13.3587C12.7479 0.559814 12.384 1.12819 12.384 1.65597C12.384 2.80897 13.7615 3.07692 13.9044 6.3248V13.3727C13.9044 14.9154 13.6835 15.1996 13.1962 15.1996C11.8967 15.1996 8.73901 9.23978 6.86775 2.41923C6.4909 1.09571 6.12055 0.559814 5.13944 0.559814H1.31248C0.220912 0.559814 0 1.20127 0 1.9158C0 3.18248 1.29948 9.47525 6.04908 17.7898C9.21332 23.4655 13.6705 26.5429 17.7249 26.5429C20.1614 26.5429 20.4603 25.8608 20.4603 24.6834C20.4603 19.2595 20.2394 18.7479 21.4609 18.7479C22.0262 18.7479 23.0008 19.1052 25.2749 21.8416C27.8739 25.0894 28.3027 26.5429 29.7581 26.5429H33.5851C34.6766 26.5429 35.2289 25.8608 34.9105 24.5129C34.1828 21.6792 29.2643 15.8492 29.0434 15.4595C28.4781 14.5501 28.6405 14.1441 29.0434 13.3321C29.0499 13.324 33.7215 5.10685 34.2023 2.32179Z" fill="white"/>
</svg>
